<?xml version="1.0" encoding="UTF-8"?><svg id="Layer_2" xmlns="http://www.w3.org/2000/svg" viewBox="0 0 867.05 155.39"><defs><style>.cls-1{fill:#c80a6a;}.cls-2{fill:#fff;}</style></defs><g id="Layer_1-2"><path class="cls-2" d="M252.32,.55h-21.72l-26.49,74.93h20.65l3.08-8.64h27.4l3.01,8.57h20.72L252.32,.55Zm-17.52,46.52l6.66-18.76,6.61,18.76h-13.27Z"/><path class="cls-2" d="M304.98,55.69V.55h-19.43V75.47h45.35v-19.79h-25.92Z"/><path class="cls-2" d="M325.53,.55V20.34h13.92v55.14h19.48V20.34h14.78V.55h-48.17Z"/><path class="cls-2" d="M428.21,20.34V.55h-45.35V75.47h45.35v-19.79h-25.87v-7.78h24.18V28.12h-24.18v-7.78h25.87Z"/><path class="cls-2" d="M500.37,32.3c.15-8.42-3.14-16.53-9.12-22.46-5.72-6.05-13.71-9.41-22.03-9.29h-31.67V75.47h19.43v-11.43h13.58l6.66,11.43h22.6l-10.86-18.64c7.42-5.96,11.63-15.03,11.41-24.54Zm-22.84,8.4c-2.16,2.28-5.17,3.54-8.31,3.48h-12.24V20.31h12.24c3.15-.04,6.16,1.25,8.31,3.56,2.25,2.24,3.49,5.3,3.44,8.47,.03,3.14-1.21,6.15-3.44,8.35Z"/><path class="cls-2" d="M560.76,.55V52.8L535.29,.55h-25.59V75.47h19.43V32.51l20.91,42.96h30.15V.55h-19.43Z"/><path class="cls-2" d="M635.28,.55h-21.74l-26.52,74.93h20.65l3.22-8.64h27.28l3.01,8.57h20.72L635.28,.55Zm-17.54,46.52l6.66-18.76,6.68,18.76h-13.34Z"/><path class="cls-2" d="M656.07,.55V20.34h13.94v55.14h19.48V20.34h14.75V.55h-48.17Z"/><path class="cls-2" d="M713.52,.55V75.47h19.43V.55h-19.43Z"/><path class="cls-2" d="M793.68,.55l-16.66,47.19L760.31,.6h-20.53l26.49,74.93h21.74L814.39,.55h-20.72Z"/><path class="cls-2" d="M866.45,20.34V.55h-45.35V75.47h45.35v-19.79h-25.87v-7.78h24.18V28.12h-24.18v-7.78h25.87Z"/><path class="cls-2" d="M246.81,100.87c-4.58-4.81-10.95-7.5-17.59-7.42h-25.3v59.86h15.52v-9.14h9.79c6.65,.09,13.04-2.62,17.59-7.47,9.69-9.97,9.69-25.84,0-35.8v-.02Zm-10.98,24.66c-1.71,1.82-4.11,2.83-6.61,2.79h-9.79v-19.1h9.79c2.5-.04,4.9,.98,6.61,2.79,1.78,1.8,2.76,4.25,2.7,6.78,.06,2.52-.92,4.95-2.7,6.73Z"/><path class="cls-2" d="M311.73,118.8c.14-6.7-2.44-13.17-7.16-17.93-4.58-4.82-10.97-7.51-17.62-7.42h-25.3v59.86h15.52v-9.14h10.86l5.32,9.19h18.05l-8.78-14.92c5.94-4.77,9.31-12.03,9.12-19.64Zm-18.31,6.73c-1.72,1.82-4.13,2.83-6.64,2.79h-9.79v-19.1h9.79c2.51-.04,4.92,.99,6.64,2.82,1.8,1.78,2.79,4.22,2.74,6.76,.05,2.53-.95,4.96-2.74,6.73Z"/><path class="cls-2" d="M370.64,101.75c-11.44-11.77-30.26-12.03-42.02-.58-.2,.19-.39,.39-.58,.58-11.81,12.06-11.81,31.36,0,43.42,11.44,11.77,30.26,12.03,42.02,.58,.2-.19,.39-.39,.58-.58,11.81-12.06,11.81-31.36,0-43.42Zm-11.03,32.25c-2.65,2.87-6.4,4.49-10.31,4.44-3.9,.05-7.64-1.53-10.31-4.37-5.73-5.84-5.73-15.19,0-21.03,2.67-2.84,6.41-4.43,10.31-4.39,3.9-.06,7.65,1.54,10.31,4.39,5.75,5.83,5.75,15.2,0,21.03v-.07Z"/><path class="cls-2" d="M429.12,102.04c-5.39-5.72-12.93-8.91-20.79-8.81h-20.79v60.08h20.79c7.86,.11,15.4-3.09,20.79-8.81,11.52-11.81,11.52-30.65,0-42.46Zm-10.96,31.29c-2.56,2.7-6.12,4.2-9.83,4.15h-5.28v-28.4h5.28c3.72-.04,7.28,1.48,9.83,4.18,2.68,2.64,4.15,6.26,4.08,10.03,.06,3.76-1.41,7.39-4.08,10.05h0Z"/><path class="cls-2" d="M476.5,93.45v36.78c.01,2.14-.85,4.19-2.39,5.68-3.02,3.08-7.96,3.13-11.04,.11-.04-.04-.07-.07-.11-.11-1.54-1.49-2.4-3.54-2.39-5.68v-36.78h-15.52v36.78c-.11,6.32,2.38,12.41,6.87,16.85,8.82,9.13,23.37,9.38,32.5,.56,.19-.18,.37-.37,.56-.56,4.51-4.43,7.01-10.53,6.9-16.85v-36.78h-15.4Z"/><path class="cls-2" d="M529.73,138.44c-3.9,.05-7.64-1.53-10.31-4.37-5.73-5.84-5.73-15.19,0-21.03,2.66-2.87,6.4-4.49,10.31-4.46,3.27-.02,6.44,1.1,8.97,3.15l11-11.22c-11.83-10.81-30.11-10.26-41.27,1.24-11.81,12.06-11.81,31.36,0,43.42,11.16,11.5,29.44,12.05,41.27,1.24l-11-11.22c-2.52,2.1-5.7,3.25-8.97,3.25Z"/><path class="cls-2" d="M557.01,93.45v15.8h11.12v44.06h15.56v-44.06h11.79v-15.8h-38.48Z"/><path class="cls-2" d="M643.39,133.67c-.25-7.19-4.93-13.48-11.74-15.78l-7.59-2.12c-3.68-.72-5.56-1.89-5.63-3.46-.08-.93,.23-1.86,.86-2.55,.61-.7,1.46-1.13,2.39-1.22,3.09-.22,6.1,1.04,8.12,3.39l11.29-10.88c-3.4-3.7-7.82-6.32-12.7-7.52-2.56-.67-5.21-.92-7.85-.74-5.05,.25-9.75,2.61-12.98,6.49-3.44,3.81-5.16,8.87-4.77,13.99,.2,6.94,4.48,13.11,10.91,15.73l7.42,2.39c2.1,.27,4.12,.93,5.97,1.96,.42,.33,.67,.83,.69,1.36,.16,.93-.11,1.89-.74,2.6-1.01,.8-2.27,1.23-3.56,1.22-.9,.01-1.79-.12-2.65-.38-1.97-.48-3.77-1.52-5.16-3.01l-11.27,10.88c5.01,5.48,12.15,8.51,19.57,8.31,5.01-.14,9.82-2.03,13.58-5.35,4.25-3.9,6.42-9.56,5.85-15.3Z"/><path class="cls-2" d="M782.27,93.09h-35.33l-15.16,23.54-15.16-23.54h-45.52v61.08h44.95l15.75-24.47,15.78,24.47h13.3v-18.5h21.48c5.56,.04,10.89-2.25,14.7-6.3,8.2-8.36,8.2-21.74,0-30.1-3.86-4.03-9.22-6.27-14.8-6.18Zm-72.35,57.45v-3.53h-31.7v-19.84h28.48v-7.16h-28.48v-19.76h31.7v-4.58l17.64,27.43-17.64,27.45Zm26.11-27.45l17.73-27.5v54.9l-17.73-27.4Zm56.02,1.24c-2.52,2.73-6.08,4.25-9.79,4.18h-21.48v-28.26h21.48c3.7-.08,7.26,1.43,9.79,4.13,5.46,5.57,5.46,14.48,0,20.05v-.1Zm71.61-14.06c-1.51-3.08-3.52-5.88-5.94-8.31-11.65-12.01-30.82-12.3-42.83-.66-.22,.22-.44,.44-.66,.66-12.02,12.28-12.02,31.92,0,44.21,11.64,12.02,30.82,12.32,42.83,.68,.23-.22,.46-.45,.68-.68,2.43-2.42,4.43-5.23,5.94-8.31,4.49-8.64,4.49-18.93,0-27.57l-.02-.02Zm-10.98,30.86c-8.97,9.23-23.71,9.44-32.94,.47-.16-.16-.32-.31-.47-.47-1.6-1.63-2.99-3.47-4.11-5.47-3.44-7.36-3.44-15.86,0-23.22,1.1-2.02,2.48-3.87,4.11-5.49,9-9.23,23.78-9.41,33.01-.41,.14,.13,.27,.27,.41,.41,9.27,9.51,9.27,24.67,0,34.18Z"/><path class="cls-1" d="M148.54,123.19c-6.32,6.3-13.43,11.76-21.15,16.23-14.93,8.63-31.81,13.32-49.05,13.63h-1.98C34.08,152.94-.11,118.58,0,76.31,.09,39.4,26.51,7.81,62.82,1.19c1.89-.33,3.84-.6,5.73-.81,2.58-.24,5.28-.38,7.81-.38h3.96c12.35,.61,24.37,4.22,35.02,10.5V50.79c0,5.23-1.04,10.41-3.08,15.23-5.39-5.36-11.91-9.44-19.1-11.93h0c-5.31-2.13-10.98-3.24-16.71-3.25-2.03,0-4.05,.24-6.02,.72-.36,.07-.71,.17-1.05,.29-.32,.07-.64,.17-.95,.29l-.53,.19-.62,.21-.79,.31-.31,.14-.57,.26-.84,.41-.45,.24c-.95,.5-1.86,1.07-2.72,1.69l-.74,.53-.74,.6h0l-.19,.14-.62,.55-.76,.72-.36,.36-.38,.41c-.71,.76-1.38,1.55-2.01,2.39-.21,.29-.43,.57-.62,.88-.58,.88-1.12,1.78-1.6,2.72-.17,.31-.31,.64-.45,.95s-.31,.67-.43,1,0,.26-.17,.43l-.21,.55c-.12,.33-.21,.67-.33,1-.22,.71-.41,1.42-.55,2.15-.05,.17-.09,.35-.12,.53v.53l-.14,.81c-.07,.48-.12,.97-.14,1.46-.02,.33-.02,.65,0,.98v3.13c-.01,.18-.01,.37,0,.55h0v1c0,.26,0,.53,.12,.81l.14,.6c-.01,.21-.01,.41,0,.62h0c.15,.69,.33,1.36,.55,2.03,.05,.19,.12,.37,.19,.55l.14,.43c0,.21,.14,.43,.24,.64,.4,.99,.85,1.97,1.36,2.91,.09,.18,.2,.36,.31,.53,.57,1.01,1.22,1.97,1.93,2.89l.84,1.03,.91,1,.98,.98h0l.98,.86h0c.29,.26,.57,.48,.88,.72l.31,.24,.76,.55c.1,.08,.2,.15,.31,.21,.33,.24,.67,.45,1.03,.64l1.19,.69c.48,.26,.98,.5,1.48,.72l.98,.67,.93,.36h0l.79,.26h.31l.86,.26,1.03,.26c.6,.14,1.19,.24,1.81,.33h.26c.36,.07,.73,.12,1.1,.14h6.99c26.32-2.26,46.55-24.24,46.64-50.65V0h51.03V51.03c0,8.6-1.08,17.16-3.22,25.49h0c-4.55,17.66-13.76,33.78-26.66,46.66ZM60.77,56.12c-.55,.43-1.1,.88-1.62,1.36,.53-.48,1.07-.93,1.62-1.36Zm67.07,96.65h-.45v.24h51.03v-50.96h0c-11.02,21.87-28.74,39.64-50.58,50.72Z"/><path class="cls-2" d="M105.17,76.74c-5.75-5.94-15.85-13.84-28.79-13.84-7.54,0-13.65,6.12-13.65,13.66,0,7.54,6.11,13.64,13.65,13.65,13.51,0,23.3-7.66,28.79-13.46Z"/></g></svg>