<svg xmlns="http://www.w3.org/2000/svg" xmlns:xlink="http://www.w3.org/1999/xlink" width="315.696" height="34.176" viewBox="0 0 315.696 34.176">
  <defs>
    <linearGradient id="linear-gradient" x1="0.5" x2="0.5" y2="1" gradientUnits="objectBoundingBox">
      <stop offset="0" stop-color="#efe597"/>
      <stop offset="0.345" stop-color="#a89e51"/>
      <stop offset="0.635" stop-color="#8d833b"/>
      <stop offset="1" stop-color="#4d3d1c"/>
    </linearGradient>
  </defs>
  <path id="Trazado_5657" data-name="Trazado 5657" d="M-136.2-7.44h-14.592L-153.48,0h-4.608l12.1-33.264h5.04L-128.9,0h-4.608Zm-1.248-3.552-6.048-16.9-6.048,16.9Zm18.192,7.44h11.712V0h-16.08V-33.456h4.368Zm36.96-29.9V-29.9h-9.12V0h-4.368V-29.9h-9.168v-3.552Zm40.56,9.792a9.242,9.242,0,0,1-2.856,6.936q-2.856,2.76-8.712,2.76h-6.432V0H-64.1V-33.456h10.8q5.664,0,8.616,2.736A9.185,9.185,0,0,1-41.736-23.664Zm-11.568,6.1q3.648,0,5.376-1.584A5.813,5.813,0,0,0-46.2-23.664q0-6.192-7.1-6.192h-6.432v12.288ZM-18.7,0l-7.968-13.68h-5.28V0h-4.368V-33.456h10.8a14.338,14.338,0,0,1,6.408,1.3,9.024,9.024,0,0,1,3.912,3.5,9.769,9.769,0,0,1,1.3,5.04,9.846,9.846,0,0,1-1.992,6.1,9.735,9.735,0,0,1-5.976,3.5L-13.464,0ZM-31.944-17.184h6.432a7.3,7.3,0,0,0,5.328-1.752,6.277,6.277,0,0,0,1.776-4.68,5.987,5.987,0,0,0-1.752-4.608q-1.752-1.632-5.352-1.632h-6.432ZM8.04.336a16.883,16.883,0,0,1-8.5-2.184,15.987,15.987,0,0,1-6.072-6.1A17.455,17.455,0,0,1-8.76-16.752,17.455,17.455,0,0,1-6.528-25.56a15.987,15.987,0,0,1,6.072-6.1,16.883,16.883,0,0,1,8.5-2.184,16.976,16.976,0,0,1,8.544,2.184,15.863,15.863,0,0,1,6.048,6.072,17.567,17.567,0,0,1,2.208,8.832A17.567,17.567,0,0,1,22.632-7.92a15.863,15.863,0,0,1-6.048,6.072A16.976,16.976,0,0,1,8.04.336Zm0-3.792a12.329,12.329,0,0,0,6.312-1.632,11.486,11.486,0,0,0,4.416-4.656,14.706,14.706,0,0,0,1.608-7.008,14.67,14.67,0,0,0-1.608-7.032,11.574,11.574,0,0,0-4.392-4.632A12.293,12.293,0,0,0,8.04-30.048,12.293,12.293,0,0,0,1.7-28.416a11.574,11.574,0,0,0-4.392,4.632A14.67,14.67,0,0,0-4.3-16.752,14.706,14.706,0,0,0-2.688-9.744,11.486,11.486,0,0,0,1.728-5.088,12.329,12.329,0,0,0,8.04-3.456ZM47.784-29.9V-18.72H59.976v3.6H47.784V-3.6H61.416V0h-18V-33.5h18v3.6ZM81.72-16.7,91.992,0H87.048L79.032-13.056,71.4,0H66.552L76.776-16.7,66.5-33.456h4.9l8.064,13.1,7.68-13.1h4.9Zm38.5-6.96a9.242,9.242,0,0,1-2.856,6.936q-2.856,2.76-8.712,2.76h-6.432V0H97.848V-33.456h10.8q5.664,0,8.616,2.736A9.185,9.185,0,0,1,120.216-23.664Zm-11.568,6.1q3.648,0,5.376-1.584a5.813,5.813,0,0,0,1.728-4.512q0-6.192-7.1-6.192h-6.432v12.288Zm32.16,17.9a16.883,16.883,0,0,1-8.5-2.184,15.987,15.987,0,0,1-6.072-6.1,17.455,17.455,0,0,1-2.232-8.808,17.455,17.455,0,0,1,2.232-8.808,15.987,15.987,0,0,1,6.072-6.1,16.883,16.883,0,0,1,8.5-2.184,16.976,16.976,0,0,1,8.544,2.184,15.863,15.863,0,0,1,6.048,6.072,17.567,17.567,0,0,1,2.208,8.832A17.567,17.567,0,0,1,155.4-7.92a15.863,15.863,0,0,1-6.048,6.072A16.976,16.976,0,0,1,140.808.336Zm0-3.792a12.329,12.329,0,0,0,6.312-1.632,11.486,11.486,0,0,0,4.416-4.656,14.706,14.706,0,0,0,1.608-7.008,14.67,14.67,0,0,0-1.608-7.032,11.574,11.574,0,0,0-4.392-4.632,12.293,12.293,0,0,0-6.336-1.632,12.293,12.293,0,0,0-6.336,1.632,11.574,11.574,0,0,0-4.392,4.632,14.67,14.67,0,0,0-1.608,7.032,14.706,14.706,0,0,0,1.608,7.008A11.486,11.486,0,0,0,134.5-5.088,12.329,12.329,0,0,0,140.808-3.456Z" transform="translate(158.088 33.84)" fill="url(#linear-gradient)"/>
</svg>
